<!--?xml version="1.0" encoding="utf-8"?-->
<!-- Generator: Adobe Illustrator 15.1.0, SVG Export Plug-In . SVG Version: 6.00 Build 0)  -->

<svg version="1.1" id="_x32_" xmlns="http://www.w3.org/2000/svg" xmlns:xlink="http://www.w3.org/1999/xlink" x="0px" y="0px" width="512px" height="512px" viewBox="0 0 512 512" style="width: 512px; height: 512px; opacity: 1;" xml:space="preserve">
<style type="text/css">

	.st0{fill:#4B4B4B;}

</style>
<g>
	<path class="st0" d="M95.438,198.203H24.313C10.891,198.203,0,209.078,0,222.516v254.438c0,13.406,10.891,24.297,24.313,24.297
		h71.125c13.438,0,24.313-10.891,24.313-24.297V222.516C119.75,209.078,108.875,198.203,95.438,198.203z M65.047,462.656
		c-12.422,0-22.516-10.078-22.516-22.516c0-12.422,10.094-22.5,22.516-22.5c12.453,0,22.516,10.078,22.516,22.5
		C87.563,452.578,77.5,462.656,65.047,462.656z" style="fill: rgb(75, 75, 75);"></path>
	<path class="st0" d="M512,286.875c0-16.5-7.859-31.125-19.984-40.469c3.484-4.469,5.984-9.266,7.641-13.75
		c2.766-7.734,3.625-14.594,3.656-19.656c0.094-15.313-6.516-28.969-16.953-37.859c-10.391-9-24.141-13.578-38.625-13.578h-77.844
		c4.984-13.719,8.578-29.594,8.578-47.422c0-4.156-0.188-8.422-0.609-12.766c-0.797-8.25-2.984-17.313-6.391-26.656
		c-5.156-13.984-12.984-28.531-23.844-40.531c-5.438-6-11.656-11.359-18.813-15.469c-7.125-4.109-15.25-6.938-24.031-7.641
		c-2.656-0.219-5.219-0.328-7.672-0.328c-6.469,0-12.422,0.75-18.047,3c-4.219,1.688-8.156,4.344-11.188,7.766
		c-4.578,5.156-6.906,11.344-8.156,17.563c-1.25,6.281-1.594,12.938-1.594,20.438v0.141c0,0.016,0.078,6.656,0.156,15.438
		c0.063,8.781,0.156,19.703,0.156,28.172c0,6.953-0.594,12.609-1.781,17.469c-1.844,7.281-4.844,13.094-10.844,20.063
		c-5.969,6.906-15.094,14.641-28.203,24.031c-48.578,34.859-58.484,53.75-59.875,56.625c-0.797,1.703-1.203,3.578-1.203,5.453
		v203.266c0,32.641,26.438,59.078,59.078,59.094h88.672h108.25c13.828-0.078,30.547-3.094,45.406-11.234
		c7.375-4.109,14.344-9.609,19.594-17.094c5.25-7.422,8.531-16.891,8.469-27.266c-0.063-8.813-2.734-17.156-6.875-24.625
		c-0.313-0.547-0.719-1.047-1.047-1.594c15.922-8.484,26.766-25.25,26.797-44.563c0-13.484-5.313-25.703-13.938-34.75
		C503.688,318.844,512,303.844,512,286.875z M434.422,337.953h18.141c0.609,0.094,1.203,0.188,1.828,0.188
		c13.672,0.031,24.719,11.078,24.734,24.75c-0.016,13.672-11.063,24.719-24.734,24.734h-26.078c-7.094,0-12.875,5.766-12.875,12.875
		c0,7.094,5.781,12.859,12.875,12.859h19c1.266,1.078,2.75,1.953,4.438,2.484l0.016,0.016c0.203,0.078,1.109,0.688,2.141,1.859
		c1.594,1.719,3.375,4.625,4.563,7.672c1.219,3.031,1.844,6.234,1.813,8.281c-0.031,5.281-1.406,8.984-3.813,12.5
		c-3.594,5.203-10.453,9.844-18.813,12.891c-8.281,3.063-17.813,4.5-25.125,4.469h-108.25h-88.672
		c-9.25-0.016-17.516-3.703-23.578-9.781c-6.063-6.063-9.781-14.328-9.781-23.578V230.594c3.75-5.266,16.344-20.484,50.344-44.859
		c18.469-13.281,31.313-24.422,39.922-37.688c4.266-6.609,7.297-13.703,9.109-21.156c1.844-7.484,2.531-15.266,2.531-23.625
		c0-16.953-0.281-43-0.297-43.813c-0.016-5.875,0.266-10.641,0.859-14.063c0.422-2.563,1-4.344,1.5-5.375
		c0.844-1.547,0.938-1.578,2.047-2.203c1.109-0.578,3.891-1.359,8.844-1.328c1.656-0.016,3.516,0.063,5.609,0.234
		c6.063,0.5,11.844,2.906,17.578,7.141c8.547,6.313,16.453,16.906,22.078,28.281c5.688,11.313,9.125,23.469,9.875,31.672
		c0.328,3.531,0.5,6.969,0.5,10.328c0,21.422-6.391,39.734-13.875,54.469c-2.031,3.969-1.844,8.734,0.5,12.547
		s6.484,6.141,10.969,6.141h97.391c9.109,0,16.734,2.891,21.797,7.297c5.031,4.469,7.969,10.109,8.063,18.406
		c0,1.094-0.219,3.734-0.844,6.531c-0.938,4.281-2.938,8.984-5.438,11.797c-1.266,1.438-2.563,2.453-4.125,3.203
		c-1.547,0.719-3.438,1.25-6.281,1.266h-27.5c-7.094,0-12.875,5.75-12.875,12.859s5.781,12.859,12.875,12.859h27.5
		c14.016,0.031,25.344,11.359,25.375,25.359c-0.031,14-11.359,25.328-25.375,25.344h-26.484c-7.109,0-12.859,5.766-12.859,12.875
		C421.563,332.188,427.313,337.953,434.422,337.953z" style="fill: rgb(75, 75, 75);"></path>
</g>
</svg>
